<svg xmlns="http://www.w3.org/2000/svg" xml:space="preserve" id="_x32_" version="1.1"
    viewBox="0 0 512 512"><style>.st0{fill:white}</style><path d="M36.823 215.559h73.646v18.412H36.823zM36.823 141.912h73.646v36.823H36.823zM165.704 215.559h73.646v18.412h-73.646zM165.704 141.912h73.646v36.823h-73.646z" class="st0"/><path d="M510.067 401.059 403.032 66.108c-5.512-17.206-21.41-28.193-38.577-28.193-4.081 0-8.244.63-12.325 1.933l-.023.008-63.114 20.156c-5.853 1.879-10.91 5.026-15.135 8.945-5.434-15.976-20.389-27.536-38.203-27.546h-66.256c-12.694.009-23.882 5.96-31.312 15.094-7.43-9.134-18.619-15.085-31.312-15.094H40.518C18.137 41.422.005 59.545 0 81.931v351.635c.005 22.386 18.137 40.509 40.518 40.518h66.256c12.694-.009 23.882-5.961 31.312-15.094 7.43 9.134 18.619 15.085 31.312 15.094h66.256c22.381-.009 40.514-18.132 40.518-40.518V153.015l93.591 292.887c5.52 17.206 21.419 28.192 38.59 28.183 4.09 0 8.262-.63 12.334-1.924l63.119-20.174c17.207-5.51 28.202-21.405 28.193-38.576a40.286 40.286 0 0 0-1.932-12.352zm-381.186 32.507c-.022 12.209-9.903 22.08-22.107 22.107H40.518c-12.204-.026-22.085-9.898-22.107-22.107V81.931c.022-12.208 9.903-22.089 22.107-22.107h66.256c12.204.018 22.084 9.898 22.107 22.107v351.635zm128.881 0c-.022 12.209-9.903 22.08-22.107 22.107h-66.256c-12.204-.026-22.084-9.898-22.106-22.107V81.931c.022-12.208 9.902-22.089 22.106-22.107h66.256c12.204.018 22.085 9.898 22.107 22.107v351.635zm220.435.891-63.11 20.164a22.059 22.059 0 0 1-6.733 1.052c-9.34-.009-18.061-5.987-21.055-15.382l-107.031-334.95a21.944 21.944 0 0 1-1.056-6.733c.005-9.341 5.988-18.061 15.386-21.054l63.11-20.166h.009a22.072 22.072 0 0 1 6.738-1.06c9.337.009 18.052 5.988 21.046 15.391l107.035 334.95a22.08 22.08 0 0 1 1.052 6.743c-.009 9.33-5.987 18.051-15.391 21.045z" class="st0"/><path d="M352.099 39.857c.013 0 .022 0 .031-.008l1.061-.342-1.092.35zM338.484 227.03l5.601 17.531 70.157-22.413-5.609-17.54zM386.211 134.459l-70.149 22.413 11.211 35.079 70.149-22.421z" class="st0"/></svg>